<svg xmlns="http://www.w3.org/2000/svg" xmlns:xlink="http://www.w3.org/1999/xlink" xml:space="preserve" version="1.1" style="shape-rendering:geometricPrecision;text-rendering:geometricPrecision;image-rendering:optimizeQuality;" viewBox="0 0 847 1058.75" x="0px" y="0px" fill-rule="evenodd" clip-rule="evenodd"><defs><style type="text/css">
   
    .str0 {stroke:black;stroke-width:20;stroke-linecap:round;stroke-linejoin:round}
    .fil0 {fill:none}
    .fil1 {fill:black}
   
  </style></defs><g><polyline class="fil0 str0" points="144,759 144,346 238,281 316,318 316,759 "/><polyline class="fil0 str0" points="316,318 316,188 480,55 558,134 558,385 639,333 707,368 707,759 "/><line class="fil0 str0" x1="453" y1="77" x2="453" y2="759"/><line class="fil0 str0" x1="238" y1="281" x2="238" y2="759"/><line class="fil0 str0" x1="558" y1="385" x2="558" y2="759"/><line class="fil0 str0" x1="639" y1="333" x2="639" y2="759"/><polygon class="fil0 str0" points="72,759 780,759 780,791 71,791 "/><polygon class="fil1" points="238,759 238,281 144,346 144,759 "/><polygon class="fil1" points="316,318 316,759 453,759 453,77 316,188 "/><polygon class="fil1" points="558,385 558,759 639,759 639,333 "/></g><text x="0" y="862" fill="#000000" font-size="5px" font-weight="bold" font-family="'Helvetica Neue', Helvetica, Arial-Unicode, Arial, Sans-serif">Created by Angriawan Ditya Zulkarnain</text><text x="0" y="867" fill="#000000" font-size="5px" font-weight="bold" font-family="'Helvetica Neue', Helvetica, Arial-Unicode, Arial, Sans-serif">from the Noun Project</text></svg>